<svg width="87" height="58" viewBox="0 0 87 58" fill="none" xmlns="http://www.w3.org/2000/svg">
<path d="M13.8779 0.603697C17.0748 -0.010227 18.4633 3.39405 16.5074 5.93745C14.0763 9.1017 9.82308 11.8459 7.50965 15.1809C7.62036 15.8087 15.4072 22.795 16.5074 24.2306C19.1576 27.6787 15.7508 31.3922 12.1896 28.5511C10.0906 26.8755 2.17928 19.1253 0.760775 17.1058C-0.334821 15.5433 -0.207963 14.4078 0.88994 12.9237C2.46068 10.8027 10.1806 3.13787 12.3257 1.48304C12.7524 1.153 13.3521 0.702941 13.8779 0.603697Z" fill="black"/>
<path d="M26.7202 12.7636H38.9448V1.56988C38.9448 0.778242 40.5455 0.0235304 41.3389 0.0789221C44.4158 0.298181 43.3364 4.22176 43.3179 6.19509C43.2672 11.942 43.4494 17.765 43.5578 23.5119C43.2072 25.086 43.5901 27.2901 43.2649 28.7464C42.7943 30.8536 38.9448 29.9073 38.9448 28.5733V17.3796H26.7202V27.8809C26.7202 30.212 22.4854 31.1052 21.9319 28.0563L21.9849 1.90916C22.4947 0.374344 24.2638 -0.504998 25.6869 0.526671C25.9314 0.704386 26.7202 1.85838 26.7202 2.03148V12.7636Z" fill="black"/>
<path d="M60.3946 25.4579C61.5709 25.481 62.8695 25.2317 63.8451 26.0442C65.2752 27.2397 64.7885 29.5361 62.9479 29.9747C61.7162 30.2678 54.7344 30.2562 53.4151 30.0185C52.1811 29.7969 51.6067 28.8576 51.6114 27.6482C51.6252 24.6732 55.9591 25.7164 56.0168 25.3241L55.7838 4.68375C54.1462 4.75761 51.842 4.79684 51.6436 2.69427C51.5053 1.22408 52.2249 0.360892 53.648 0.123169C54.8082 -0.0707019 60.3969 -0.280729 60.3969 1.56797V25.4556L60.3946 25.4579Z" fill="black"/>
<path d="M36.1376 44.3622H45.7811V35.7927C45.7811 35.6034 46.4224 34.9318 46.6553 34.8372C47.8962 34.334 48.9711 34.8649 49.234 36.1643C48.948 42.4812 49.746 49.3452 49.2801 55.5998C49.2017 56.6592 48.9803 57.5501 47.7809 57.7716C47.1281 57.8916 45.7811 57.2039 45.7811 56.5899V48.0204H36.1376V56.5899C36.1376 57.2039 34.7906 57.8916 34.1378 57.7716C32.9384 57.5501 32.717 56.6592 32.6386 55.5998C32.1727 49.3452 32.9684 42.4812 32.6847 36.1643C32.9477 34.8672 34.0248 34.334 35.2634 34.8372C35.4964 34.9318 36.1376 35.6034 36.1376 35.7927V44.3622Z" fill="black"/>
<path d="M59.5827 54.1802H67.1481C67.81 54.1802 68.5204 54.7941 68.7349 55.4218C69.1593 56.6566 68.3936 57.656 67.1319 57.8268C63.2108 58.3576 58.2126 57.4598 54.1762 57.8429C52.4371 57.746 51.7128 55.9873 52.8453 54.6787L64.0781 46.2845C68.0845 41.5878 61.8869 35.2293 57.2531 39.4552C55.7815 40.7961 56.2082 41.994 55.6824 43.5403C55.085 45.299 52.2272 44.9782 52.2618 42.6264C52.4002 33.2121 66.6706 31.4857 68.6519 41.1977C70.0912 48.2463 63.8267 50.335 59.5827 54.1825V54.1802Z" fill="black"/>
<path d="M72.8163 30.0347C69.6195 30.6486 68.231 27.2443 70.1869 24.7009C72.618 21.5367 76.8712 18.7925 79.1846 15.4574C79.0739 14.8297 71.2871 7.8434 70.1869 6.40783C67.5367 2.9597 70.9434 -0.753849 74.5047 2.08728C76.6036 3.76288 84.515 11.5131 85.9335 13.5326C87.0291 15.0951 86.9022 16.2306 85.8043 17.7147C84.2359 19.8357 76.516 27.5005 74.3709 29.153C73.9442 29.4831 73.3445 29.9331 72.8186 30.0324L72.8163 30.0347Z" fill="black"/>
<path d="M26.4739 34.9854C28.9672 34.5054 30.0513 37.1618 28.5267 39.1467C26.6307 41.6163 23.314 43.7558 21.508 46.3569C21.5956 46.8462 27.6687 52.2953 28.5267 53.4147C30.5933 56.1058 27.9362 59.0023 25.1592 56.7843C23.5215 55.478 17.3493 49.4311 16.2445 47.8547C15.3911 46.6361 15.4903 45.7499 16.346 44.5936C17.5707 42.9387 23.593 36.961 25.2653 35.6709C25.5974 35.4147 26.0656 35.0639 26.4762 34.9831L26.4739 34.9854Z" fill="black"/>
<path d="M76.1772 57.2362C73.6839 57.7163 72.5998 55.0598 74.1244 53.0749C76.0204 50.6054 79.3371 48.4659 81.1431 45.8648C81.0555 45.3755 74.9824 39.9263 74.1244 38.807C72.0578 36.1159 74.7149 33.2193 77.4919 35.4373C79.1296 36.7436 85.3018 42.7905 86.4066 44.3669C87.26 45.5855 87.1609 46.4718 86.3051 47.6281C85.0804 49.2829 79.0581 55.2606 77.3858 56.5508C77.0537 56.807 76.5855 57.1578 76.1749 57.2385L76.1772 57.2362Z" fill="black"/>
</svg>
