<svg width="54" height="68" viewBox="0 0 54 68" fill="none" xmlns="http://www.w3.org/2000/svg">
<path d="M16.3643 0.068848L50.4537 0C52.3748 0.215524 53.5239 2.20014 53.5774 4.03509V52.2526C53.5803 54.5875 51.4841 56.2218 49.272 56.2937C39.2836 55.6172 28.2262 57.1528 18.3685 56.2937C15.2567 56.0213 13.7395 54.8449 13.4693 51.6539C12.2014 36.6361 14.4491 19.8402 13.4693 4.63676C13.5257 2.60724 14.4907 0.868083 16.3643 0.0718414V0.068848Z" fill="black"/>
<path d="M11.6963 53.1392C12.0229 55.2645 14.1489 57.743 16.3253 58.0513C25.8446 58.5872 35.9637 57.4317 45.4117 58.0633C45.7353 58.0843 47.0062 58.204 47.0388 58.5512C46.5222 60.6825 44.8743 61.7901 42.7364 61.9817C34.5444 62.7121 23.1783 62.1493 14.8259 61.9817C10.8917 61.9038 7.36425 62.3888 6.93668 57.3389C5.64804 42.1415 7.92246 25.1211 6.94559 9.73204C7.04951 8.81307 7.51865 7.43013 8.15703 6.7626C8.69148 6.20583 11.6963 4.79894 11.6963 5.84064V53.1362V53.1392Z" fill="black"/>
<path d="M4.86675 11.0822V58.228C4.86675 59.608 6.56217 62.0506 7.735 62.8199C7.99333 62.9905 9.6353 63.7658 9.76594 63.7658H40.0519C41.0673 63.7658 39.8262 65.7594 39.4669 66.1695C38.6653 67.0855 37.7003 67.5285 36.4888 67.6572C26.4826 68.7378 14.6236 66.846 4.42137 67.6572C1.78471 67.2801 0.620778 65.5918 0.404026 63.0264C-0.875703 47.9278 1.3809 31.0121 0.418872 15.7249C0.703916 12.8812 1.98365 11.3665 4.86972 11.0822H4.86675Z" fill="black"/>
</svg>
