<svg width="81" height="60" viewBox="0 0 81 60" fill="none" xmlns="http://www.w3.org/2000/svg">
<path d="M17.7267 11.1454C21.8098 10.358 23.5867 14.7229 21.088 17.9897C17.981 22.0507 12.5506 25.5696 9.5914 29.8481C9.73231 30.6527 19.6789 39.6139 21.088 41.4545C24.4734 45.8781 20.1223 50.6435 15.5717 46.9969C12.8909 44.849 2.78277 34.9071 0.971495 32.3137C-0.427349 30.3109 -0.265812 28.8536 1.13647 26.9509C3.14022 24.2297 13.0043 14.3983 15.7436 12.2746C16.29 11.8533 17.053 11.2766 17.7267 11.1454Z" fill="black"/>
<path d="M35.9142 58.2647C33.0341 61.1689 28.3151 58.023 29.5902 54.1519L44.3554 2.34291C46.0086 -1.63177 52.0542 -0.236664 51.6865 4.18003C46.3042 20.8039 42.8775 38.816 37.2306 55.2673C36.911 56.1927 36.6085 57.5637 35.9142 58.2612V58.2647Z" fill="black"/>
<path d="M61.722 11.1491C63.2686 10.8935 64.0763 11.3666 65.2517 12.2748C67.7366 14.1948 78.3431 24.7203 80.0272 27.1307C81.4261 29.1336 81.2645 30.5908 79.8622 32.4936C77.8585 35.2113 67.991 45.0496 65.2552 47.1698C60.9005 50.5402 56.539 45.8645 59.9107 41.4547C63.0177 37.3972 68.4515 33.8749 71.4073 29.5963L59.2095 16.9643C57.8691 14.6783 59.0721 11.5877 61.722 11.1491Z" fill="black"/>
</svg>
