<svg width="88" height="58" viewBox="0 0 88 58" fill="none" xmlns="http://www.w3.org/2000/svg">
<path d="M34.9076 0.348789C37.2166 -0.120799 50.222 -0.0929023 52.6933 0.292996C55.1645 0.678895 57.6219 4.0311 57.9047 6.54642C58.2988 10.0428 58.2246 17.7003 57.9186 21.271C57.6497 24.3861 56.268 26.6829 53.245 27.7058C50.4863 28.6403 40.5688 28.5473 37.3186 28.2683C33.5491 27.9429 30.4473 26.0227 29.9929 21.9777C29.6174 18.6441 29.5803 9.12217 30.0254 5.86296C30.3453 3.51967 32.5384 0.832325 34.903 0.348789H34.9076ZM45.0245 11.3911C45.7895 12.3535 49.2994 15.185 48.9748 12.3024C48.9006 11.6421 44.7602 7.49024 44.1111 7.42515C43.3275 7.34611 39.1825 11.3492 38.997 12.0001C38.8023 12.6883 38.9599 13.567 39.8362 13.5577C40.8563 13.5484 41.663 11.3213 42.8778 11.3911V20.1831C42.8778 20.7968 45.0245 21.192 45.0245 19.8251V11.3911Z" fill="black"/>
<path d="M5.57256 30.1373C8.49356 29.6399 19.6073 29.6724 22.6303 30.0816C25.5188 30.4768 27.8927 33.4896 28.208 36.3303C28.5975 39.7802 28.5836 48.2978 28.208 51.7616C27.902 54.5931 25.5745 57.3362 22.6674 57.6896C19.2781 58.1034 9.22613 58.1034 5.83221 57.6896C3.00394 57.3455 0.592955 54.5466 0.291582 51.7616C-0.0747024 48.3583 -0.13034 38.9572 0.324037 35.6469C0.676412 33.0711 2.9993 30.579 5.56793 30.1373H5.57256ZM20.6922 44.7643C20.8869 44.2761 21.2115 42.9696 20.5114 42.9696H11.9246C10.4363 42.9696 13.4732 40.5706 13.5474 39.9057C13.6169 39.2873 13.3758 38.6411 12.6386 38.6504C12.0451 38.655 7.89082 42.8627 7.79345 43.5322C7.62654 44.6574 11.1503 48.3908 11.9941 48.6465C12.6942 48.8604 13.9183 48.8139 13.9044 47.8143C13.8905 46.8147 11.6742 45.9871 11.7438 44.7643H20.6876H20.6922Z" fill="black"/>
<path d="M34.9062 30.1326C37.345 29.6305 49.6411 29.7142 52.3256 30.0815C55.2095 30.4767 57.5834 33.4802 57.9033 36.3302C58.2835 39.7103 58.2696 48.0048 57.9033 51.4035C57.639 53.8584 55.9235 56.6201 53.5125 57.4059C51.5559 58.0429 38.5273 57.9592 35.8753 57.6988C32.7642 57.3919 30.3254 54.872 29.9869 51.7615C29.6206 48.3582 29.565 38.9571 30.0193 35.6468C30.3346 33.3593 32.6065 30.6115 34.9016 30.1326H34.9062ZM42.8764 37.7669C42.3061 39.6127 43.2983 44.3551 42.8764 46.5589C41.7034 46.6286 40.9615 44.6619 40.1223 44.4434C39.5798 44.3039 38.7035 44.8433 38.6618 45.2989C38.6062 45.9684 42.779 50.0506 43.7712 50.5202C44.221 50.5202 48.7787 46.0707 48.9085 45.6011C49.6457 42.9184 45.6119 45.5128 45.0231 46.5589V38.1249C45.0231 36.9254 43.1268 36.9533 42.8764 37.7669Z" fill="black"/>
<path d="M64.9705 30.1373C67.8915 29.6399 79.0052 29.6724 82.0282 30.0816C85.0512 30.4907 87.286 33.4803 87.606 36.3303C88.0047 39.8778 87.9398 47.8003 87.6199 51.4176C87.3927 53.984 85.7282 56.5877 83.2152 57.406C81.2586 58.0429 68.23 57.9592 65.5779 57.6989C62.5271 57.4013 60.0187 54.8023 59.6895 51.7616C59.3232 48.3583 59.2676 38.9572 59.722 35.6469C60.0744 33.0711 62.3973 30.579 64.9659 30.1373H64.9705ZM76.1584 42.9696H67.3908C66.4264 42.9696 66.9318 45.1223 68.1048 45.1223H76.5154C76.2372 45.9917 74.2111 47.168 74.0859 47.8654C73.9051 48.8511 74.6284 49.3207 75.5464 48.9999C76.3207 48.7256 80.1922 44.6713 80.118 43.8856C80.0623 43.3183 75.8849 38.7806 75.2079 38.7201C74.531 38.6597 73.8865 39.5523 74.0581 40.2079C74.1972 40.7472 76.7055 42.5187 76.1677 42.9696H76.1584Z" fill="black"/>
</svg>
